<?xml version="1.0" standalone="no"?><svg xmlns="http://www.w3.org/2000/svg" viewBox="0 0 1440 320"><path fill="#35363a" fill-opacity="1" d="M0,160L0,192L72,192L72,32L144,32L144,128L216,128L216,192L288,192L288,128L360,128L360,192L432,192L432,224L504,224L504,224L576,224L576,128L648,128L648,64L720,64L720,224L792,224L792,256L864,256L864,128L936,128L936,224L1008,224L1008,64L1080,64L1080,32L1152,32L1152,32L1224,32L1224,224L1296,224L1296,128L1368,128L1368,128L1440,128L1440,0L1368,0L1368,0L1296,0L1296,0L1224,0L1224,0L1152,0L1152,0L1080,0L1080,0L1008,0L1008,0L936,0L936,0L864,0L864,0L792,0L792,0L720,0L720,0L648,0L648,0L576,0L576,0L504,0L504,0L432,0L432,0L360,0L360,0L288,0L288,0L216,0L216,0L144,0L144,0L72,0L72,0L0,0L0,0Z"></path></svg>