<?xml version="1.0" standalone="no"?><svg xmlns="http://www.w3.org/2000/svg" viewBox="0 0 1440 320"><path fill="#35363a" fill-opacity="1" d="M0,160L0,192L72,192L72,32L144,32L144,128L216,128L216,192L288,192L288,128L360,128L360,192L432,192L432,224L504,224L504,224L576,224L576,128L648,128L648,64L720,64L720,224L792,224L792,256L864,256L864,128L936,128L936,224L1008,224L1008,64L1080,64L1080,32L1152,32L1152,32L1224,32L1224,224L1296,224L1296,128L1368,128L1368,128L1440,128L1440,320L1368,320L1368,320L1296,320L1296,320L1224,320L1224,320L1152,320L1152,320L1080,320L1080,320L1008,320L1008,320L936,320L936,320L864,320L864,320L792,320L792,320L720,320L720,320L648,320L648,320L576,320L576,320L504,320L504,320L432,320L432,320L360,320L360,320L288,320L288,320L216,320L216,320L144,320L144,320L72,320L72,320L0,320L0,320Z"></path></svg>